<mxfile host="app.diagrams.net" modified="2024-03-19T13:06:58.135Z" agent="Mozilla/5.0 (X11; Linux x86_64) AppleWebKit/537.36 (KHTML, like Gecko) Chrome/117.0.0.0 Safari/537.36" version="24.0.7" etag="K9iO8No09uNV8pq-oWx0" type="github">
  <diagram name="Page-1" id="SJgC5yfVvKQhKXU9DvxQ">
    <mxGraphModel>
      <root>
        <mxCell id="0" />
        <mxCell id="1" parent="0" />
      </root>
    </mxGraphModel>
  </diagram>
</mxfile>
